<svg width="88" height="88" viewBox="0 0 88 88" fill="none" xmlns="http://www.w3.org/2000/svg">
<path d="M-1.71821e-05 44C-1.61186e-05 19.6706 19.6706 -2.98677e-06 44 -1.9233e-06C68.3294 -8.59829e-07 88 19.6706 88 44C88 68.3294 68.3294 88 44 88C19.6706 88 -1.82456e-05 68.3294 -1.71821e-05 44ZM82.8235 44C82.8235 22.5177 65.4823 5.17647 44 5.17647C22.5176 5.17647 5.17645 22.5176 5.17645 44C5.17645 65.4824 22.5176 82.8235 44 82.8235C65.4823 82.8235 82.8235 65.4824 82.8235 44Z" fill="#F90000"/>
<path d="M39.5996 65.4825L61.0819 44.0002L39.5996 22.5178L43.2231 18.8943L68.329 44.0002L43.2231 69.1061L39.5996 65.4825Z" fill="#F90000"/>
<path d="M64.7059 41.4119L64.7059 46.5883L20.7059 46.5883L20.7059 41.4119L64.7059 41.4119Z" fill="#F90000"/>
</svg>
