<svg width="88" height="88" viewBox="0 0 88 88" fill="none" xmlns="http://www.w3.org/2000/svg">
<path d="M88 44C88 68.3294 68.3294 88 44 88C19.6706 88 -8.59829e-07 68.3294 -1.9233e-06 44C-2.98677e-06 19.6706 19.6706 -1.61186e-05 44 -1.71821e-05C68.3294 -1.82456e-05 88 19.6706 88 44ZM5.17647 44C5.17647 65.4823 22.5177 82.8235 44 82.8235C65.4824 82.8235 82.8235 65.4823 82.8235 44C82.8235 22.5176 65.4824 5.17645 44 5.17645C22.5176 5.17645 5.17647 22.5176 5.17647 44Z" fill="#F90000"/>
<path d="M48.4004 22.5175L26.9181 43.9998L48.4004 65.4822L44.7769 69.1057L19.671 43.9998L44.7769 18.8939L48.4004 22.5175Z" fill="#F90000"/>
<path d="M23.2941 46.5881L23.2941 41.4117L67.2941 41.4117L67.2941 46.5881L23.2941 46.5881Z" fill="#F90000"/>
</svg>
