<svg width="40" height="40" viewBox="0 0 40 40" fill="none" xmlns="http://www.w3.org/2000/svg">
<path fill-rule="evenodd" clip-rule="evenodd" d="M27.4242 14.6818C27.4242 16.5624 26.6772 18.366 25.3474 19.6958C24.0176 21.0256 22.214 21.7727 20.3333 21.7727C18.4527 21.7727 16.6491 21.0256 15.3193 19.6958C13.9895 18.366 13.2424 16.5624 13.2424 14.6818C13.2424 12.8012 13.9895 10.9976 15.3193 9.66778C16.6491 8.33797 18.4527 7.5909 20.3333 7.5909C22.214 7.5909 24.0176 8.33797 25.3474 9.66778C26.6772 10.9976 27.4242 12.8012 27.4242 14.6818ZM23.8788 14.6818C23.8788 15.6221 23.5053 16.5239 22.8404 17.1888C22.1755 17.8537 21.2737 18.2273 20.3333 18.2273C19.393 18.2273 18.4912 17.8537 17.8263 17.1888C17.1614 16.5239 16.7879 15.6221 16.7879 14.6818C16.7879 13.7415 17.1614 12.8397 17.8263 12.1748C18.4912 11.5099 19.393 11.1364 20.3333 11.1364C21.2737 11.1364 22.1755 11.5099 22.8404 12.1748C23.5053 12.8397 23.8788 13.7415 23.8788 14.6818Z" fill="#FB0101"/>
<path fill-rule="evenodd" clip-rule="evenodd" d="M20.3334 0.5C9.56406 0.5 0.833374 9.23068 0.833374 20C0.833374 30.7693 9.56406 39.5 20.3334 39.5C31.1027 39.5 39.8334 30.7693 39.8334 20C39.8334 9.23068 31.1027 0.5 20.3334 0.5ZM4.37883 20C4.37883 23.705 5.64278 27.1157 7.76119 29.8245C9.24929 27.8711 11.1686 26.2881 13.3695 25.1989C15.5703 24.1097 17.993 23.5439 20.4486 23.5455C22.8726 23.5426 25.2652 24.0934 27.444 25.1558C29.6228 26.2181 31.5302 27.764 33.0208 29.6755C34.5568 27.661 35.5909 25.3097 36.0378 22.8161C36.4846 20.3226 36.3312 17.7584 35.5903 15.3359C34.8495 12.9134 33.5424 10.7021 31.7772 8.88507C30.012 7.068 27.8395 5.69739 25.4395 4.88663C23.0395 4.07587 20.4809 3.84828 17.9754 4.22268C15.4699 4.59708 13.0896 5.56272 11.0315 7.03969C8.97329 8.51665 7.2964 10.4625 6.13955 12.7162C4.9827 14.9699 4.37915 17.4667 4.37883 20ZM20.3334 35.9545C16.6708 35.9605 13.1186 34.7005 10.2785 32.3878C11.4215 30.7509 12.9432 29.4144 14.714 28.4922C16.4847 27.5699 18.4521 27.0892 20.4486 27.0909C22.4202 27.0892 24.3637 27.5579 26.1178 28.4582C27.8718 29.3585 29.3857 30.6644 30.5336 32.2673C27.6715 34.6551 24.0608 35.9604 20.3334 35.9545Z" fill="#FB0101"/>
</svg>
